<?xml version="1.0" encoding="UTF-8" standalone="no"?>
<!-- Created with Inkscape (http://www.inkscape.org/) -->

<svg
   xmlns:dc="http://purl.org/dc/elements/1.1/"
   xmlns:cc="http://creativecommons.org/ns#"
   xmlns:rdf="http://www.w3.org/1999/02/22-rdf-syntax-ns#"
   xmlns:svg="http://www.w3.org/2000/svg"
   xmlns="http://www.w3.org/2000/svg"
   xmlns:sodipodi="http://sodipodi.sourceforge.net/DTD/sodipodi-0.dtd"
   xmlns:inkscape="http://www.inkscape.org/namespaces/inkscape"
   width="210mm"
   height="297mm"
   viewBox="0 0 210 297"
   version="1.1"
   id="svg8"
   sodipodi:docname="less-than-wrong-logos.svg"
   inkscape:version="0.92.2 (5c3e80d, 2017-08-06)">
  <defs
     id="defs2" />
  <sodipodi:namedview
     id="base"
     pagecolor="#ffffff"
     bordercolor="#666666"
     borderopacity="1.0"
     inkscape:pageopacity="0.0"
     inkscape:pageshadow="2"
     inkscape:zoom="1.4142136"
     inkscape:cx="306.3011"
     inkscape:cy="815.96195"
     inkscape:document-units="mm"
     inkscape:current-layer="layer1"
     showgrid="false"
     inkscape:window-width="1920"
     inkscape:window-height="1017"
     inkscape:window-x="-8"
     inkscape:window-y="-8"
     inkscape:window-maximized="1" />
  <metadata
     id="metadata5">
    <rdf:RDF>
      <cc:Work
         rdf:about="">
        <dc:format>image/svg+xml</dc:format>
        <dc:type
           rdf:resource="http://purl.org/dc/dcmitype/StillImage" />
      </cc:Work>
    </rdf:RDF>
  </metadata>
  <g
     inkscape:label="Layer 1"
     inkscape:groupmode="layer"
     id="layer1">
    <path
       id="path4522-9-0-9"
       d="m 110.84264,161.5182 -0.37307,-0.37306 -1.47902,1.47902 -1.47902,-1.47902 -0.37306,0.37306 1.47902,1.47902 -1.47902,1.47902 0.37306,0.37307 1.47902,-1.47902 1.47902,1.47902 0.37307,-0.37307 -1.47902,-1.47902 z"
       inkscape:connector-curvature="0"
       style="stroke-width:0.26458332" />
    <path
       style="fill:#000000;fill-opacity:1;stroke-width:0.26458332"
       d="m 106.76516,161.89131 -0.73277,0.73277 -0.37311,0.3731 0.37311,0.37311 0.73277,0.73225 0.3731,-0.3731 -0.73277,-0.73226 0.73329,-0.73277 -0.005,-0.005 z"
       id="path4522-9-0-9-0"
       inkscape:connector-curvature="0" />
    <path
       id="path4522-9-0-9-8"
       d="m 66.792355,160.60368 -0.37307,-0.37306 -1.479021,1.47902 -1.479019,-1.47902 -0.37306,0.37306 1.47902,1.47902 -1.47902,1.47902 0.37306,0.37307 1.479019,-1.47902 1.479021,1.47902 0.37307,-0.37307 -1.47902,-1.47902 z"
       inkscape:connector-curvature="0"
       style="stroke-width:0.26458332" />
    <path
       inkscape:connector-curvature="0"
       style="fill:#000000;fill-opacity:1;stroke-width:0.26458332"
       d="m 62.714877,160.97679 -0.732772,0.73278 -0.373103,0.3731 0.373103,0.3731 0.732772,0.73226 0.373104,-0.37311 -0.732772,-0.73225 0.733289,-0.73277 -0.0052,-0.005 z"
       id="path4522-9-0-9-0-6" />
    <path
       id="path4522-9-0-9-4"
       d="m 82.962815,160.65719 -0.37307,-0.37306 -1.47902,1.47902 -1.47902,-1.47902 -0.37306,0.37306 1.47902,1.47902 -1.47902,1.47902 0.37306,0.37307 1.47902,-1.47902 1.47902,1.47902 0.37307,-0.37307 -1.47902,-1.47902 z"
       inkscape:connector-curvature="0"
       style="stroke-width:0.26458332" />
    <path
       inkscape:connector-curvature="0"
       style="fill:#000000;fill-opacity:1;stroke-width:0.26458332"
       d="m 78.885338,161.0303 -0.732772,0.73277 -0.373104,0.3731 0.373104,0.37311 0.732772,0.73225 0.373104,-0.3731 -0.732772,-0.73226 0.733289,-0.73277 -0.0052,-0.005 z"
       id="path4522-9-0-9-0-9" />
    <rect
       style="fill:#999999;fill-opacity:0.49748745;stroke:none;stroke-width:4.78937912;stroke-miterlimit:4;stroke-dasharray:none;stroke-opacity:0.57788942"
       id="rect4894-8"
       width="1.5640315"
       height="1.5640315"
       x="57.557457"
       y="-171.73778"
       transform="rotate(135)" />
    <rect
       style="fill:#666666;fill-opacity:1;stroke:none;stroke-width:1.59654629;stroke-miterlimit:4;stroke-dasharray:none;stroke-opacity:0.57788942"
       id="rect4894-6"
       width="0.52137208"
       height="0.52137208"
       x="39.495407"
       y="-192.06065"
       transform="matrix(-0.70710821,0.70710535,-0.70710821,-0.70710535,0,0)" />
    <rect
       style="fill:#666666;fill-opacity:1;stroke:none;stroke-width:1.59654629;stroke-miterlimit:4;stroke-dasharray:none;stroke-opacity:0.57788942"
       id="rect4894-6-7"
       width="0.52137208"
       height="0.52137208"
       x="38.974037"
       y="-192.06065"
       transform="matrix(-0.70710821,0.70710535,-0.70710821,-0.70710535,0,0)" />
    <rect
       style="fill:#666666;fill-opacity:1;stroke:none;stroke-width:1.59654629;stroke-miterlimit:4;stroke-dasharray:none;stroke-opacity:0.57788942"
       id="rect4894-6-6"
       width="0.52137208"
       height="0.52137208"
       x="38.452667"
       y="-192.06065"
       transform="matrix(-0.70710821,0.70710535,-0.70710821,-0.70710535,0,0)"
       inkscape:transform-center-x="-0.17539563"
       inkscape:transform-center-y="1.2803881" />
    <rect
       style="fill:none;fill-opacity:1;stroke:none;stroke-width:1.59654629;stroke-miterlimit:4;stroke-dasharray:none;stroke-opacity:0.57788942"
       id="rect4894-6-1"
       width="0.52137208"
       height="0.52137208"
       x="39.495384"
       y="-191.53926"
       transform="matrix(-0.70710821,0.70710535,-0.70710821,-0.70710535,0,0)" />
    <rect
       style="fill:none;fill-opacity:1;stroke:none;stroke-width:1.59654629;stroke-miterlimit:4;stroke-dasharray:none;stroke-opacity:0.57788942"
       id="rect4894-6-4"
       width="0.52137208"
       height="0.52137208"
       x="39.495384"
       y="-191.0179"
       transform="matrix(-0.70710821,0.70710535,-0.70710821,-0.70710535,0,0)" />
    <rect
       style="fill:#666666;fill-opacity:1;stroke:none;stroke-width:1.59654629;stroke-miterlimit:4;stroke-dasharray:none;stroke-opacity:0.57788942"
       id="rect4894-6-2"
       width="0.52137208"
       height="0.52137208"
       x="38.974014"
       y="-191.0179"
       transform="matrix(-0.70710821,0.70710535,-0.70710821,-0.70710535,0,0)" />
    <rect
       style="fill:none;fill-opacity:1;stroke:none;stroke-width:1.59654629;stroke-miterlimit:4;stroke-dasharray:none;stroke-opacity:0.57788942"
       id="rect4894-6-8"
       width="0.52137208"
       height="0.52137208"
       x="38.974014"
       y="-191.53926"
       transform="matrix(-0.70710821,0.70710535,-0.70710821,-0.70710535,0,0)" />
    <rect
       style="fill:#666666;fill-opacity:1;stroke:none;stroke-width:1.59654629;stroke-miterlimit:4;stroke-dasharray:none;stroke-opacity:0.57788942"
       id="rect4894-6-83"
       width="0.52137208"
       height="0.52137208"
       x="38.452667"
       y="-191.53929"
       transform="matrix(-0.70710821,0.70710535,-0.70710821,-0.70710535,0,0)" />
    <rect
       style="fill:none;fill-opacity:1;stroke:none;stroke-width:1.59654629;stroke-miterlimit:4;stroke-dasharray:none;stroke-opacity:0.57788942"
       id="rect4894-6-43"
       width="0.52137208"
       height="0.52137208"
       x="38.452644"
       y="-191.0179"
       transform="matrix(-0.70710821,0.70710535,-0.70710821,-0.70710535,0,0)" />
    <path
       id="path4522-9-0-9-2"
       d="m 97.4749,161.35204 -0.37307,-0.37306 -1.47903,1.47902 -1.47902,-1.47902 -0.37306,0.37306 1.47902,1.47902 -1.47902,1.47902 0.37306,0.37307 1.47902,-1.47902 1.47903,1.47902 0.37307,-0.37307 -1.47903,-1.47902 z"
       inkscape:connector-curvature="0"
       style="stroke-width:0.26458332" />
    <path
       inkscape:connector-curvature="0"
       style="fill:#000000;fill-opacity:1;stroke-width:0.26458332"
       d="m 93.39741,161.72514 -0.73277,0.73278 -0.3731,0.3731 0.3731,0.37311 0.73277,0.73225 0.37311,-0.3731 -0.73277,-0.73226 0.73329,-0.73277 -0.005,-0.005 z"
       id="path4522-9-0-9-0-3" />
    <rect
       style="fill:#00ff00;fill-opacity:0.49748745;stroke:none;stroke-width:1.59654629;stroke-miterlimit:4;stroke-dasharray:none;stroke-opacity:0.57788942"
       id="rect4894-6-14"
       width="0.52137208"
       height="0.52137208"
       x="48.830322"
       y="-182.49077"
       transform="matrix(-0.70710821,0.70710535,-0.70710821,-0.70710535,0,0)" />
    <rect
       style="fill:#00ff00;fill-opacity:0.49748745;stroke:none;stroke-width:1.59654629;stroke-miterlimit:4;stroke-dasharray:none;stroke-opacity:0.57788942"
       id="rect4894-6-7-2"
       width="0.52137208"
       height="0.52137208"
       x="48.308945"
       y="-182.49077"
       transform="matrix(-0.70710821,0.70710535,-0.70710821,-0.70710535,0,0)" />
    <rect
       style="fill:#00ff00;fill-opacity:0.49748745;stroke:none;stroke-width:1.59654629;stroke-miterlimit:4;stroke-dasharray:none;stroke-opacity:0.57788942"
       id="rect4894-6-6-4"
       width="0.52137208"
       height="0.52137208"
       x="47.787582"
       y="-182.49077"
       transform="matrix(-0.70710821,0.70710535,-0.70710821,-0.70710535,0,0)"
       inkscape:transform-center-x="-0.17539563"
       inkscape:transform-center-y="1.2803881" />
    <rect
       style="fill:#00ff00;fill-opacity:0.49748745;stroke:none;stroke-width:1.59654629;stroke-miterlimit:4;stroke-dasharray:none;stroke-opacity:0.57788942"
       id="rect4894-6-1-6"
       width="0.52137208"
       height="0.52137208"
       x="48.830307"
       y="-181.96938"
       transform="matrix(-0.70710821,0.70710535,-0.70710821,-0.70710535,0,0)" />
    <rect
       style="fill:#00ff00;fill-opacity:0.49748745;stroke:none;stroke-width:1.59654629;stroke-miterlimit:4;stroke-dasharray:none;stroke-opacity:0.57788942"
       id="rect4894-6-4-7"
       width="0.52137208"
       height="0.52137208"
       x="48.830307"
       y="-181.44801"
       transform="matrix(-0.70710821,0.70710535,-0.70710821,-0.70710535,0,0)" />
    <rect
       style="fill:#00ff00;fill-opacity:0.49748745;stroke:none;stroke-width:1.59654629;stroke-miterlimit:4;stroke-dasharray:none;stroke-opacity:0.57788942"
       id="rect4894-6-2-8"
       width="0.52137208"
       height="0.52137208"
       x="48.308929"
       y="-181.44801"
       transform="matrix(-0.70710821,0.70710535,-0.70710821,-0.70710535,0,0)" />
    <rect
       style="fill:#00ff00;fill-opacity:0.49748745;stroke:none;stroke-width:1.59654629;stroke-miterlimit:4;stroke-dasharray:none;stroke-opacity:0.57788942"
       id="rect4894-6-8-5"
       width="0.52137208"
       height="0.52137208"
       x="48.308929"
       y="-181.96938"
       transform="matrix(-0.70710821,0.70710535,-0.70710821,-0.70710535,0,0)" />
    <rect
       style="fill:#00ff00;fill-opacity:0.49748745;stroke:none;stroke-width:1.59654629;stroke-miterlimit:4;stroke-dasharray:none;stroke-opacity:0.57788942"
       id="rect4894-6-83-9"
       width="0.52137208"
       height="0.52137208"
       x="47.787582"
       y="-181.96941"
       transform="matrix(-0.70710821,0.70710535,-0.70710821,-0.70710535,0,0)" />
    <rect
       style="fill:#00ff00;fill-opacity:0.49748745;stroke:none;stroke-width:1.59654629;stroke-miterlimit:4;stroke-dasharray:none;stroke-opacity:0.57788942"
       id="rect4894-6-43-1"
       width="0.52137208"
       height="0.52137208"
       x="47.787567"
       y="-181.44801"
       transform="matrix(-0.70710821,0.70710535,-0.70710821,-0.70710535,0,0)" />
    <path
       id="path4522-9-0-9-2-6"
       d="m 120.98649,161.53262 -0.37307,-0.37306 -1.47902,1.47902 -1.47902,-1.47902 -0.37306,0.37306 1.47902,1.47902 -1.47902,1.47902 0.37306,0.37307 1.47902,-1.47902 1.47902,1.47902 0.37307,-0.37307 -1.47902,-1.47902 z"
       inkscape:connector-curvature="0"
       style="fill:#000000;fill-opacity:1;stroke-width:0.26458332" />
    <path
       inkscape:connector-curvature="0"
       style="fill:#000000;fill-opacity:1;stroke-width:0.26458332"
       d="m 116.90901,161.90572 -0.73277,0.73278 -0.37311,0.3731 0.37311,0.37311 0.73277,0.73225 0.3731,-0.3731 -0.73277,-0.73226 0.73329,-0.73277 -0.005,-0.005 z"
       id="path4522-9-0-9-0-3-2" />
    <rect
       style="fill:none;fill-opacity:1;stroke:none;stroke-width:1.59654629;stroke-miterlimit:4;stroke-dasharray:none;stroke-opacity:0.57788942"
       id="rect4894-6-14-1"
       width="0.52137208"
       height="0.52137208"
       x="32.33284"
       y="-199.24364"
       transform="matrix(-0.70710821,0.70710535,-0.70710821,-0.70710535,0,0)" />
    <rect
       style="fill:#666666;fill-opacity:1;stroke:none;stroke-width:1.59654629;stroke-miterlimit:4;stroke-dasharray:none;stroke-opacity:0.57788942"
       id="rect4894-6-7-2-6"
       width="0.52137208"
       height="0.52137208"
       x="31.811468"
       y="-199.24364"
       transform="matrix(-0.70710821,0.70710535,-0.70710821,-0.70710535,0,0)" />
    <rect
       style="fill:none;fill-opacity:1;stroke:none;stroke-width:1.59654629;stroke-miterlimit:4;stroke-dasharray:none;stroke-opacity:0.57788942"
       id="rect4894-6-6-4-7"
       width="0.52137208"
       height="0.52137208"
       x="31.290098"
       y="-199.24364"
       transform="matrix(-0.70710821,0.70710535,-0.70710821,-0.70710535,0,0)"
       inkscape:transform-center-x="-0.17539563"
       inkscape:transform-center-y="1.2803881" />
    <rect
       style="fill:none;fill-opacity:1;stroke:none;stroke-width:1.59654629;stroke-miterlimit:4;stroke-dasharray:none;stroke-opacity:0.57788942"
       id="rect4894-6-1-6-0"
       width="0.52137208"
       height="0.52137208"
       x="32.332817"
       y="-198.72224"
       transform="matrix(-0.70710821,0.70710535,-0.70710821,-0.70710535,0,0)" />
    <rect
       style="fill:#666666;fill-opacity:1;stroke:none;stroke-width:1.59654629;stroke-miterlimit:4;stroke-dasharray:none;stroke-opacity:0.57788942"
       id="rect4894-6-4-7-2"
       width="0.52137208"
       height="0.52137208"
       x="32.332817"
       y="-198.20085"
       transform="matrix(-0.70710821,0.70710535,-0.70710821,-0.70710535,0,0)" />
    <rect
       style="fill:none;fill-opacity:1;stroke:none;stroke-width:1.59654629;stroke-miterlimit:4;stroke-dasharray:none;stroke-opacity:0.57788942"
       id="rect4894-6-2-8-7"
       width="0.52137208"
       height="0.52137208"
       x="31.811445"
       y="-198.20085"
       transform="matrix(-0.70710821,0.70710535,-0.70710821,-0.70710535,0,0)" />
    <rect
       style="fill:#666666;fill-opacity:1;stroke:none;stroke-width:1.59654629;stroke-miterlimit:4;stroke-dasharray:none;stroke-opacity:0.57788942"
       id="rect4894-6-8-5-6"
       width="0.52137208"
       height="0.52137208"
       x="31.811445"
       y="-198.72224"
       transform="matrix(-0.70710821,0.70710535,-0.70710821,-0.70710535,0,0)" />
    <rect
       style="fill:#666666;fill-opacity:1;stroke:none;stroke-width:1.59654629;stroke-miterlimit:4;stroke-dasharray:none;stroke-opacity:0.57788942"
       id="rect4894-6-83-9-5"
       width="0.52137208"
       height="0.52137208"
       x="31.290098"
       y="-198.72224"
       transform="matrix(-0.70710821,0.70710535,-0.70710821,-0.70710535,0,0)" />
    <rect
       style="fill:#666666;fill-opacity:1;stroke:none;stroke-width:1.59654629;stroke-miterlimit:4;stroke-dasharray:none;stroke-opacity:0.57788942"
       id="rect4894-6-43-1-2"
       width="0.52137208"
       height="0.52137208"
       x="31.290075"
       y="-198.20085"
       transform="matrix(-0.70710821,0.70710535,-0.70710821,-0.70710535,0,0)" />
    <path
       id="path4522-9-0-9-4-6"
       d="m 133.54622,162.02686 -0.37307,-0.37306 -1.47902,1.47902 -1.47902,-1.47902 -0.37305,0.37306 1.47901,1.47902 -1.47901,1.47902 0.37305,0.37307 1.47903,-1.47902 1.47901,1.47902 0.37307,-0.37307 -1.47902,-1.47902 z"
       inkscape:connector-curvature="0"
       style="stroke-width:0.26458332" />
    <path
       inkscape:connector-curvature="0"
       style="fill:#000000;fill-opacity:1;stroke-width:0.26458332"
       d="m 129.46875,162.39997 -0.73277,0.73278 -0.37311,0.3731 0.37311,0.3731 0.73277,0.73226 0.3731,-0.37311 -0.73277,-0.73225 0.73329,-0.73277 -0.005,-0.005 z"
       id="path4522-9-0-9-0-9-3" />
    <rect
       style="fill:#55cdfc;fill-opacity:1;stroke:none;stroke-width:0.59159946;stroke-miterlimit:4;stroke-dasharray:none;stroke-opacity:0.57788942"
       id="rect5398"
       width="1.5640911"
       height="0.31279999"
       x="-24.322189"
       y="208.16136"
       transform="rotate(-45)" />
    <rect
       style="fill:#f7a8b8;fill-opacity:1;stroke:none;stroke-width:0.59159946;stroke-miterlimit:4;stroke-dasharray:none;stroke-opacity:0.57788942"
       id="rect5398-6"
       width="1.5640911"
       height="0.31279999"
       x="-24.322189"
       y="207.84853"
       transform="rotate(-45)" />
    <rect
       style="fill:#ffffff;fill-opacity:1;stroke:none;stroke-width:0.59159946;stroke-miterlimit:4;stroke-dasharray:none;stroke-opacity:0.57788942"
       id="rect5398-0"
       width="1.5640911"
       height="0.31279999"
       x="-24.322189"
       y="207.53575"
       transform="rotate(-45)" />
    <rect
       style="fill:#f7a8b8;fill-opacity:1;stroke:none;stroke-width:0.59159946;stroke-miterlimit:4;stroke-dasharray:none;stroke-opacity:0.57788942"
       id="rect5398-5"
       width="1.5640911"
       height="0.31279999"
       x="-24.322189"
       y="207.22295"
       transform="rotate(-45)" />
    <rect
       style="fill:#55cdfc;fill-opacity:1;stroke:none;stroke-width:0.59159946;stroke-miterlimit:4;stroke-dasharray:none;stroke-opacity:0.57788942"
       id="rect5398-4"
       width="1.5640911"
       height="0.31279999"
       x="-24.322189"
       y="206.91002"
       transform="rotate(-45)" />
    <text
       xml:space="preserve"
       style="font-style:normal;font-weight:normal;font-size:10.58333302px;line-height:1.25;font-family:sans-serif;letter-spacing:0px;word-spacing:0px;fill:#000000;fill-opacity:1;stroke:none;stroke-width:0.26458332"
       x="57.679165"
       y="22.627085"
       id="text5435"><tspan
         sodipodi:role="line"
         id="tspan5433"
         x="57.679165"
         y="22.627085"
         style="stroke-width:0.26458332">Less Than Wrong</tspan></text>
    <g
       id="g6170">
      <path
         style="stroke-width:1.94085765"
         inkscape:connector-curvature="0"
         d="M 49.242164,34.888671 46.505509,32.15208 35.656105,43.001468 24.806724,32.15208 22.070137,34.888671 32.919518,45.738059 22.070137,56.587447 24.806724,59.324112 35.656105,48.474724 46.505509,59.324112 49.242164,56.587447 38.392783,45.738059 Z"
         id="path4522-9-0-9-8-0" />
      <path
         id="path4522-9-0-9-0-6-4"
         d="m 19.331785,37.62563 -5.375336,5.375324 -2.736885,2.736885 2.736885,2.736885 5.375336,5.371513 2.736885,-2.736959 -5.375267,-5.371439 5.379072,-5.375253 -0.03668,-0.03668 z"
         style="fill:#000000;fill-opacity:1;stroke-width:1.94085765"
         inkscape:connector-curvature="0" />
    </g>
    <g
       id="g6183">
      <path
         style="stroke-width:1.94085765"
         inkscape:connector-curvature="0"
         d="m 120.56875,36.101741 -2.73668,-2.736592 -10.84938,10.849388 -10.849382,-10.849388 -2.736587,2.736592 10.849379,10.849387 -10.849379,10.849388 2.736587,2.736665 10.849382,-10.849388 10.84938,10.849388 2.73668,-2.736665 -10.84938,-10.849388 z"
         id="path4522-9-0-9-7" />
      <path
         inkscape:connector-curvature="0"
         id="path4522-9-0-9-0-60"
         d="m 90.658278,38.838699 -5.375245,5.375251 -2.736953,2.736885 2.736953,2.736958 5.375245,5.371439 2.736885,-2.736885 -5.375245,-5.371512 5.379073,-5.375251 -0.03668,-0.03668 z"
         style="fill:#000000;fill-opacity:1;stroke-width:1.94085765" />
      <rect
         transform="matrix(-0.70710821,0.70710535,-0.70710821,-0.70710535,0,0)"
         y="-106.91222"
         x="-32.86438"
         height="3.824538"
         width="3.824538"
         id="rect4894-6-0"
         style="fill:#666666;fill-opacity:1;stroke:none;stroke-width:11.71150494;stroke-miterlimit:4;stroke-dasharray:none;stroke-opacity:0.57788942" />
      <rect
         transform="matrix(-0.70710821,0.70710535,-0.70710821,-0.70710535,0,0)"
         y="-106.91222"
         x="-36.6889"
         height="3.824538"
         width="3.824538"
         id="rect4894-6-7-0"
         style="fill:#666666;fill-opacity:1;stroke:none;stroke-width:11.71150494;stroke-miterlimit:4;stroke-dasharray:none;stroke-opacity:0.57788942" />
      <rect
         inkscape:transform-center-y="9.3923059"
         inkscape:transform-center-x="-1.2866093"
         transform="matrix(-0.70710821,0.70710535,-0.70710821,-0.70710535,0,0)"
         y="-106.91222"
         x="-40.513428"
         height="3.824538"
         width="3.824538"
         id="rect4894-6-6-8"
         style="fill:#666666;fill-opacity:1;stroke:none;stroke-width:11.71150494;stroke-miterlimit:4;stroke-dasharray:none;stroke-opacity:0.57788942" />
      <rect
         transform="matrix(-0.70710821,0.70710535,-0.70710821,-0.70710535,0,0)"
         y="-103.08756"
         x="-32.864548"
         height="3.824538"
         width="3.824538"
         id="rect4894-6-1-1"
         style="fill:none;fill-opacity:1;stroke:none;stroke-width:11.71150494;stroke-miterlimit:4;stroke-dasharray:none;stroke-opacity:0.57788942" />
      <rect
         transform="matrix(-0.70710821,0.70710535,-0.70710821,-0.70710535,0,0)"
         y="-99.263008"
         x="-32.864548"
         height="3.824538"
         width="3.824538"
         id="rect4894-6-4-9"
         style="fill:none;fill-opacity:1;stroke:none;stroke-width:11.71150494;stroke-miterlimit:4;stroke-dasharray:none;stroke-opacity:0.57788942" />
      <rect
         transform="matrix(-0.70710821,0.70710535,-0.70710821,-0.70710535,0,0)"
         y="-99.263008"
         x="-36.689072"
         height="3.824538"
         width="3.824538"
         id="rect4894-6-2-0"
         style="fill:#666666;fill-opacity:1;stroke:none;stroke-width:11.71150494;stroke-miterlimit:4;stroke-dasharray:none;stroke-opacity:0.57788942" />
      <rect
         transform="matrix(-0.70710821,0.70710535,-0.70710821,-0.70710535,0,0)"
         y="-103.08756"
         x="-36.689072"
         height="3.824538"
         width="3.824538"
         id="rect4894-6-8-8"
         style="fill:none;fill-opacity:1;stroke:none;stroke-width:11.71150494;stroke-miterlimit:4;stroke-dasharray:none;stroke-opacity:0.57788942" />
      <rect
         transform="matrix(-0.70710821,0.70710535,-0.70710821,-0.70710535,0,0)"
         y="-103.08777"
         x="-40.513428"
         height="3.824538"
         width="3.824538"
         id="rect4894-6-83-7"
         style="fill:#666666;fill-opacity:1;stroke:none;stroke-width:11.71150494;stroke-miterlimit:4;stroke-dasharray:none;stroke-opacity:0.57788942" />
      <rect
         transform="matrix(-0.70710821,0.70710535,-0.70710821,-0.70710535,0,0)"
         y="-99.263008"
         x="-40.513592"
         height="3.824538"
         width="3.824538"
         id="rect4894-6-43-7"
         style="fill:none;fill-opacity:1;stroke:none;stroke-width:11.71150494;stroke-miterlimit:4;stroke-dasharray:none;stroke-opacity:0.57788942" />
    </g>
    <g
       id="g6192">
      <path
         style="stroke-width:1.94085765"
         inkscape:connector-curvature="0"
         d="m 188.62004,36.223015 -2.73666,-2.73661 -10.8494,10.849404 -10.84938,-10.849404 -2.73652,2.73661 10.84931,10.849381 -10.84931,10.849381 2.73652,2.736679 10.84947,-10.849404 10.84931,10.849404 2.73666,-2.736679 -10.84938,-10.849381 z"
         id="path4522-9-0-9-4-6-2" />
      <path
         id="path4522-9-0-9-0-9-3-8"
         d="m 158.70966,38.959969 -5.37525,5.375313 -2.73695,2.736885 2.73695,2.736885 5.37525,5.371531 2.73688,-2.736977 -5.37524,-5.371439 5.37905,-5.375245 -0.0367,-0.03668 z"
         style="fill:#000000;fill-opacity:1;stroke-width:1.94085765"
         inkscape:connector-curvature="0" />
      <rect
         transform="rotate(-45)"
         y="152.82352"
         x="77.074013"
         height="2.2945523"
         width="11.47343"
         id="rect5398-54"
         style="fill:#55cdfc;fill-opacity:1;stroke:none;stroke-width:4.33969307;stroke-miterlimit:4;stroke-dasharray:none;stroke-opacity:0.57788942" />
      <rect
         transform="rotate(-45)"
         y="150.52872"
         x="77.074013"
         height="2.2945523"
         width="11.47343"
         id="rect5398-6-1"
         style="fill:#f7a8b8;fill-opacity:1;stroke:none;stroke-width:4.33969307;stroke-miterlimit:4;stroke-dasharray:none;stroke-opacity:0.57788942" />
      <rect
         transform="rotate(-45)"
         y="148.23433"
         x="77.074013"
         height="2.2945523"
         width="11.47343"
         id="rect5398-0-1"
         style="fill:#ffffff;fill-opacity:1;stroke:none;stroke-width:4.33969307;stroke-miterlimit:4;stroke-dasharray:none;stroke-opacity:0.57788942" />
      <rect
         transform="rotate(-45)"
         y="145.93974"
         x="77.074013"
         height="2.2945523"
         width="11.47343"
         id="rect5398-5-3"
         style="fill:#f7a8b8;fill-opacity:1;stroke:none;stroke-width:4.33969307;stroke-miterlimit:4;stroke-dasharray:none;stroke-opacity:0.57788942" />
      <rect
         transform="rotate(-45)"
         y="143.64432"
         x="77.074013"
         height="2.2945523"
         width="11.47343"
         id="rect5398-4-0"
         style="fill:#55cdfc;fill-opacity:1;stroke:none;stroke-width:4.33969307;stroke-miterlimit:4;stroke-dasharray:none;stroke-opacity:0.57788942" />
    </g>
  </g>
</svg>
