<?xml version="1.0" encoding="UTF-8" standalone="no"?>
<svg
   xmlns:dc="http://purl.org/dc/elements/1.1/"
   xmlns:cc="http://creativecommons.org/ns#"
   xmlns:rdf="http://www.w3.org/1999/02/22-rdf-syntax-ns#"
   xmlns:svg="http://www.w3.org/2000/svg"
   xmlns="http://www.w3.org/2000/svg"
   xmlns:xlink="http://www.w3.org/1999/xlink"
   xmlns:sodipodi="http://sodipodi.sourceforge.net/DTD/sodipodi-0.dtd"
   xmlns:inkscape="http://www.inkscape.org/namespaces/inkscape"
   inkscape:export-ydpi="96"
   inkscape:export-xdpi="96"
   inkscape:export-filename="C:\Users\clair\Desktop\claire.png"
   height="262.41263"
   width="262.41263"
   viewBox="0 0 262.41263 262.41263"
   version="1.1"
   id="svg900"
   sodipodi:docname="claire-trans.svg"
   inkscape:version="1.0 (4035a4fb49, 2020-05-01)">
  <metadata
     id="metadata904">
    <rdf:RDF>
      <cc:Work
         rdf:about="">
        <dc:format>image/svg+xml</dc:format>
        <dc:type
           rdf:resource="http://purl.org/dc/dcmitype/StillImage" />
        <dc:title></dc:title>
      </cc:Work>
    </rdf:RDF>
  </metadata>
  <sodipodi:namedview
     fit-margin-bottom="0"
     fit-margin-right="0"
     fit-margin-left="0"
     fit-margin-top="0"
     inkscape:document-rotation="0"
     pagecolor="#ffffff"
     bordercolor="#666666"
     borderopacity="1"
     objecttolerance="10"
     gridtolerance="10"
     guidetolerance="10"
     inkscape:pageopacity="0"
     inkscape:pageshadow="2"
     inkscape:window-width="2736"
     inkscape:window-height="1732"
     id="namedview902"
     showgrid="false"
     showguides="true"
     inkscape:zoom="2"
     inkscape:cx="188.19248"
     inkscape:cy="190.85763"
     inkscape:window-x="-12"
     inkscape:window-y="-12"
     inkscape:window-maximized="1"
     inkscape:current-layer="svg900" />
  <defs
     id="defs845">
    <path
       id="a"
       d="M 0,0 H 264 V 280 H 0 Z" />
    <path
       id="d"
       d="M 8.5,88.7 A 12,12 0 0 0 8,92 v 13 c 0,6 4.4,11 10.2,11.9 A 56,56 0 0 0 50,162.6 V 181 h -4 c -15.6,0 -30,5 -41.9,13.4 A 73.9,73.9 0 0 1 0,170 V 74 a 74,74 0 0 1 148,0 v 96 c 0,8.6 -1.5,16.8 -4.1,24.4 A 71.7,71.7 0 0 0 102,181 H 98 V 162.6 A 56,56 0 0 0 129.8,116.9 12,12 0 0 0 140,105 V 92 a 12,12 0 0 0 -1,-4.8 C 126,85.1 111.5,79.8 97.1,71.5 85.1,64.5 74.6,56.3 66.7,47.8 A 84,84 0 0 0 79,68.5 45.8,45.8 0 0 1 53.2,42 L 52,44.7 c -9.8,22 -26.4,38 -43.5,44 z" />
    <path
       id="c"
       d="m 171.3,30 a 72,72 0 0 1 60.7,71 v 9 H 32 v -9 A 72,72 0 0 1 92.7,30 c 0.9,5 3.4,9.8 7.5,13.5 l 29.1,26.3 a 4,4 0 0 0 5.4,0 l 29,-26.3 a 24,24 0 0 0 7.6,-13.6 z" />
    <mask
       id="e"
       fill="#ffffff">
      <use
         y="0"
         x="0"
         width="100%"
         height="100%"
         xlink:href="#b"
         id="use836" />
    </mask>
    <mask
       id="f"
       fill="#ffffff">
      <use
         y="0"
         x="0"
         width="100%"
         height="100%"
         xlink:href="#c"
         id="use839" />
    </mask>
    <mask
       id="i"
       fill="#ffffff">
      <use
         y="0"
         x="0"
         width="100%"
         height="100%"
         xlink:href="#d"
         id="use842" />
    </mask>
  </defs>
  <defs
     id="defs848">
    <path
       id="b"
       d="M 124,144.6 V 163 h 4 a 72,72 0 0 1 72,72 v 9 H 0 v -9 a 72,72 0 0 1 72,-72 h 4 V 144.6 A 56,56 0 0 1 44.3,100 12,12 0 0 1 34,88 V 74 A 12,12 0 0 1 44,62.2 V 56 a 56,56 0 1 1 112,0 v 6.2 A 12,12 0 0 1 166,74 v 14 c 0,6 -4.5,11 -10.3,11.9 A 56,56 0 0 1 124,144.6 Z" />
  </defs>
  <rect
     y="-0.35355338"
     x="-0.35355338"
     height="52.554485"
     width="264.43356"
     id="rect891"
     style="fill:#55cdfc;fill-opacity:1;stroke-width:0.447219" />
  <rect
     style="fill:#f7a8b8;fill-opacity:1;stroke-width:0.447219"
     id="rect891-5"
     width="264.43356"
     height="52.554485"
     x="-0.35355338"
     y="52.200932" />
  <rect
     style="fill:#ffffff;fill-opacity:1;stroke-width:0.447219"
     id="rect891-8"
     width="264.43356"
     height="52.554485"
     x="-0.35355377"
     y="104.7554" />
  <rect
     style="fill:#f7a8b8;fill-opacity:1;stroke-width:0.447219"
     id="rect891-4"
     width="264.43356"
     height="52.554485"
     x="-0.35355759"
     y="157.30991" />
  <rect
     y="209.8644"
     x="-0.35355759"
     height="52.554485"
     width="264.43356"
     id="rect891-5-5"
     style="fill:#55cdfc;fill-opacity:1;stroke-width:0.447219" />
  <use
     y="0"
     x="0"
     width="100%"
     height="100%"
     fill="#d0c6ac"
     fill-rule="evenodd"
     transform="translate(31.75,18)"
     xlink:href="#b"
     id="use850" />
  <g
     fill="#ffdbb4"
     fill-rule="evenodd"
     mask="url(#e)"
     transform="translate(31.75,18)"
     id="g854">
    <path
       d="M -32,0 H 232 V 244 H -32 Z"
       id="path852" />
  </g>
  <path
     fill-opacity="0.1"
     fill-rule="evenodd"
     d="m 156,79 v 23 A 56,56 0 1 1 44,102 V 79 94 a 56,56 0 1 0 112,0 z"
     mask="url(#e)"
     transform="translate(31.75,18)"
     id="path856" />
  <use
     y="0"
     x="0"
     width="100%"
     height="100%"
     fill="#e6e6e6"
     fill-rule="evenodd"
     transform="translate(-0.25,152)"
     xlink:href="#c"
     id="use858" />
  <g
     fill="#37354a"
     fill-rule="evenodd"
     mask="url(#f)"
     transform="matrix(1.0025,0,0,1.0064014,-0.58,151.70847)"
     id="g862">
    <path
       d="M 0,0 H 264 V 110 H 0 Z"
       id="path860" />
  </g>
  <g
     fill-rule="evenodd"
     transform="translate(77.75,116)"
     id="g882">
    <defs
       id="defs865">
      <path
         id="g"
         d="m 35.1,15.1 a 19,19 0 0 0 37.8,0 C 72.9,14.3 72.1,13 71,13 H 37 c -1,0 -2,1.2 -1.9,2.1 z" />
    </defs>
    <mask
       id="h"
       fill="#ffffff">
      <use
         y="0"
         x="0"
         width="100%"
         height="100%"
         xlink:href="#g"
         id="use867" />
    </mask>
    <use
       y="0"
       x="0"
       width="100%"
       height="100%"
       fill-opacity="0.7"
       xlink:href="#g"
       id="use870" />
    <rect
       width="31"
       height="16"
       x="39"
       y="2"
       fill="#ffffff"
       mask="url(#h)"
       rx="5"
       id="rect872" />
    <g
       fill="#ff4f6d"
       mask="url(#h)"
       id="g880">
      <g
         transform="translate(38,24)"
         id="g878">
        <circle
           cx="11"
           cy="11"
           r="11"
           id="circle874" />
        <circle
           cx="21"
           cy="11"
           r="11"
           id="circle876" />
      </g>
    </g>
  </g>
  <path
     fill-opacity="0.2"
     fill-rule="evenodd"
     d="m 119.75,112 c 0,4.4 5.4,8 12,8 6.6,0 12,-3.6 12,-8"
     id="path884" />
  <circle
     cx="105.75"
     cy="94"
     r="6"
     fill="#2c5aa0"
     fill-rule="evenodd"
     id="circle886" />
  <circle
     cx="157.75"
     cy="94"
     r="6"
     fill="#2c5aa0"
     fill-rule="evenodd"
     id="circle888" />
  <path
     fill-opacity="0.6"
     fill-rule="evenodd"
     d="m 102.25,70.1 c -5.8,0.3 -15.1,4.5 -15,10.4 0.1,0.2 0.4,0.3 0.5,0.1 2.8,-3 22.3,-6 29.2,-4.3 0.7,0.1 1.1,-0.5 0.7,-1 -3.4,-3.8 -10.2,-5.4 -15.4,-5.2 m 60,0 c 5.8,0.3 15.1,4.5 15,10.4 -0.1,0.2 -0.4,0.3 -0.5,0.1 -2.8,-3 -22.3,-6 -29.2,-4.3 -0.7,0.1 -1.1,-0.5 -0.7,-1 3.4,-3.8 10.2,-5.4 15.4,-5.2"
     id="path890" />
  <use
     y="0"
     x="0"
     width="100%"
     height="100%"
     fill="#b82626"
     fill-rule="evenodd"
     transform="translate(57.75)"
     xlink:href="#d"
     id="use892" />
  <g
     fill="#b82626"
     fill-rule="evenodd"
     mask="url(#i)"
     transform="translate(57.75)"
     id="g896">
    <use
       y="0"
       x="0"
       width="100%"
       height="100%"
       xlink:href="#a"
       id="use894" />
  </g>
  <path
     fill-opacity="0.2"
     fill-rule="evenodd"
     d="m 57.75,84.4 v 6.4 c 20,-3 40.6,-20.4 52,-46.1 l 1.2,-2.8 a 45,45 0 0 0 21.3,24.4 c 1.5,2.2 3,4.3 4.6,6.2 A 45.8,45.8 0 0 1 110.95,46 l -1.2,2.8 c -11.4,25.7 -32,43 -52,46.1 V 84.5 Z m 148,-1.3 v 9.2 a 137.4,137.4 0 0 1 -77.5,-36.6 98.5,98.5 0 0 1 -3.8,-8 c 8,8.6 18.3,16.8 30.4,23.8 17.8,10.2 36,16 50.9,16.8 V 83 Z"
     id="path898" />
</svg>
